<svg id="Camada_1" data-name="Camada 1" xmlns="http://www.w3.org/2000/svg" viewBox="0 0 465.72 117.23"><defs><style>.cls-1{fill:#fff;}</style></defs><title>brand-light</title><path class="cls-1" d="M153.86,97.94H147.5V94.53h16.86v3.41h-6.43v18.91h-4.07Z" transform="translate(-0.05)"/><path class="cls-1" d="M185.42,107H177v6.56h9.41v3.34H172.93V94.53h13v3.34H177v5.77h8.41Z" transform="translate(-0.05)"/><path class="cls-1" d="M195.92,94.53H200v18.91h9.18v3.41H195.92Z" transform="translate(-0.05)"/><path class="cls-1" d="M230.7,107h-8.41v6.56h9.41v3.34H218.18V94.53h13v3.34h-8.91v5.77h8.41Z" transform="translate(-0.05)"/><path class="cls-1" d="M257.18,116.22a14.75,14.75,0,0,1-5.8,1c-7.08,0-11.39-4.44-11.39-11.26,0-7.36,5.13-11.8,12-11.8a12.68,12.68,0,0,1,5.4,1l-.86,3.24a11.18,11.18,0,0,0-4.38-.86c-4.54,0-7.81,2.85-7.81,8.22,0,4.93,2.84,8,7.78,8a12.24,12.24,0,0,0,4.44-.8Z" transform="translate(-0.05)"/><path class="cls-1" d="M285.59,105.46c0,7.48-4.54,11.76-10.67,11.76-6.33,0-10.3-4.84-10.3-11.36,0-6.89,4.34-11.73,10.63-11.73C281.75,94.13,285.59,99.06,285.59,105.46Zm-16.67.3c0,4.57,2.29,8.18,6.2,8.18s6.16-3.68,6.16-8.35c0-4.2-2.09-8.18-6.16-8.18s-6.2,3.74-6.2,8.35Z" transform="translate(-0.05)"/><path class="cls-1" d="M313.88,107.74c-.14-2.88-.3-6.35-.27-9.37h-.1c-.73,2.72-1.65,5.73-2.65,8.55l-3.28,9.67h-3.11l-3-9.54c-.86-2.85-1.66-5.9-2.26-8.68h0c-.1,2.91-.23,6.46-.4,9.51l-.5,9h-3.81L296,94.56h5.37l2.91,9c.8,2.61,1.5,5.26,2.06,7.75h.1c.6-2.42,1.36-5.17,2.22-7.79l3.08-8.94H317l1.29,22.32h-4Z" transform="translate(-0.05)"/><path class="cls-1" d="M82,73c0,5.16-2,8.91-6.14,11.31-3.25,1.9-7.91,2.82-14,2.82s-10.74-1-14.06-3C43.94,81.66,42,77.77,42,72.4v-13c5.44-.92,17.11-2.76,17.11-2.76V72.9a4.64,4.64,0,0,0,.69,2.74A2.92,2.92,0,0,0,62,76.5a2.73,2.73,0,0,0,2.19-.86,4.57,4.57,0,0,0,.71-2.74v-14H82Zm87.16,13.19h-17V83.86a10.83,10.83,0,0,1-4.24,2.33,19,19,0,0,1-6.35,1,13.88,13.88,0,0,1-9-2.82,8.54,8.54,0,0,1-3.46-6.86V49.94c5.59-.35,11.31-.7,17.1-1V73.17q0,3.18,3,3.18a2.92,2.92,0,0,0,2.19-.72,3.8,3.8,0,0,0,.77-2.39V48.6c5.59-.28,11.31-.49,17-.7Zm24-39v9a5.68,5.68,0,0,0-1.7,1.07,4.38,4.38,0,0,0-1.27,3.19V73.16a3.83,3.83,0,0,0,.78,2.46,3.24,3.24,0,0,0,2.19.72V86.71a31.71,31.71,0,0,1-6,.43c-5.09,0-8.69-.92-10.88-2.68s-3.12-4.56-3.12-8.24v-14c0-5.59,3.82-10.25,11.45-13.92.78-.35,1.56-.71,2.26-1ZM126.11,73c0,4.45-1.49,7.85-4.31,10.18l4.59,8.55H112.26l-2.48-4.67c-1.12.07-2.25.07-3.53.07-6.14,0-10.87-1-14.27-3-4-2.47-6-6.36-6-11.73V53.62c5.58-.63,11.31-1.13,17.1-1.7v21a4.73,4.73,0,0,0,.7,2.74,2.87,2.87,0,0,0,2.27.86,2.71,2.71,0,0,0,2.18-.86,4.68,4.68,0,0,0,.78-2.74V51.43c5.59-.42,11.24-.85,17.1-1.27ZM251,86.15H240.18c-7.42,0-11.94-1-13.64-3s-2.47-6.64-2.47-13.85V46.7l8.9-.08,8.2.08V69.17a4.67,4.67,0,0,0,2.05,4.3,9.66,9.66,0,0,0,4.59.85H251Zm64.08-37.52V86.15H298V48c5.79.21,11.44.42,17.1.7M294.67,73c0,5.23-2,9-5.93,11.31-3.19,1.9-7.78,2.82-13.86,2.82s-10.94-1-14.27-3c-4-2.47-6.07-6.36-6.07-11.73V46.84c5.79.07,11.52.21,17.1.28V72.91a4.75,4.75,0,0,0,.77,2.74,2.71,2.71,0,0,0,2.2.86,2.89,2.89,0,0,0,2.26-.86,4.73,4.73,0,0,0,.7-2.74V47.26c5.79.15,11.45.35,17.1.56Zm64.07,13.15H341.65V50.25c5.78.37,11.52.86,17.09,1.28Zm-165.56.59V76.37h.14a2.43,2.43,0,0,0,1.91-.72,3.22,3.22,0,0,0,.92-2.46V55.24a16.77,16.77,0,0,0-3,1v-9c6.6-.15,13.28-.29,20.06-.34V86.25h-15V83.5a5.79,5.79,0,0,1-3.82,3c-.35.1-.73.19-1.13.27m189-32.9v2.39a6.54,6.54,0,0,0-1.73,1.06,4.34,4.34,0,0,0-1.2,3.19V73.22a3.85,3.85,0,0,0,.7,2.46,3.32,3.32,0,0,0,2.23.72V86.77a32.56,32.56,0,0,1-6,.43c-5.09,0-8.69-.92-10.81-2.68s-3.24-4.62-3.24-8.3v-14c0-3.75,1.63-7,5-9.9q7.67.72,15,1.5m41.3,32.35h-17.1V56.8q8.91,1.17,17.1,2.54Zm-41.3.55V76.37h.11a2.64,2.64,0,0,0,2-.72,3.46,3.46,0,0,0,.84-2.46V55.24a15.82,15.82,0,0,0-2.93,1V53.85q10.35,1.11,20,2.4v30h-15V83.5a5.77,5.77,0,0,1-3.81,3c-.34.1-.7.19-1.1.27" transform="translate(-0.05)"/><path class="cls-1" d="M62.18,55C37.73,58.42,16.69,62.53.05,67.21,10.18,62.75,24.5,58.7,42.17,55.14V30.73c0-5.23,1.9-9.11,5.78-11.52C51.28,17,56,16,62.09,16h.09v10.8a3,3,0,0,0-2.07.92,3.44,3.44,0,0,0-.84,2.55v16h2.91Zm44.06-5c-5.21.47-10.33,1-15.33,1.5-10,1.07-19.61,2.26-28.73,3.54V46.2h2.94v-16a3.8,3.8,0,0,0-.7-2.55,2.77,2.77,0,0,0-2.19-.92h0V16c6,0,10.59,1,13.89,2.82,4.1,2.33,6.15,6.07,6.15,11.31V48.65c1.31-.17,2.63-.34,4-.49V30.76c0-5.23,2-9.11,6-11.52,3.28-2.19,7.91-3.24,13.91-3.24V26.8a3,3,0,0,0-2.12.92,3.41,3.41,0,0,0-.85,2.55V46.21l3-.3Zm46.13-7.67V16.53h17V41.46l4.6-.21V30.1c0-5.16,2.05-8.9,6.29-11.31,3.13-1.73,7.53-2.71,13.13-2.81V26.77a3,3,0,0,0-2.12.92,3.48,3.48,0,0,0-.84,2.55V40.6l3-.08V45c-31.05.78-60.42,2.47-87.17,4.92V45.87l3-.29V30.24a3.72,3.72,0,0,0-.77-2.55,2.77,2.77,0,0,0-2.19-.92V16h.21a25.34,25.34,0,0,1,14.06,3.75,11.45,11.45,0,0,1,5.79,10.39v14l3-.25V16.46h17V42.63l5.94-.37m41-26.28h1c6.07,0,10.59,1.06,13.63,3.11,3.6,2.33,5.44,6.3,5.44,11.66v9.39c3.58-.06,7.18-.09,10.81-.11V26.77h-7.63V16.46h7.63v-14h17.1v14h9.18V26.77H241.3V40q6.72,0,13.35.14V30.72c0-5.23,2-9.11,6.07-11.52,3.41-2.15,8-3.21,14-3.24v10.8a2.9,2.9,0,0,0-2.05.92,3.43,3.43,0,0,0-.91,2.55V40.5l3,.08v4.48q-20.47-.56-41.83-.57c-13.42,0-26.64.18-39.56.51V40.51l3-.07V30.24a3.77,3.77,0,0,0-.77-2.55,2.79,2.79,0,0,0-2.2-.92Zm81.39,0H275a24.86,24.86,0,0,1,14,3.75,11.33,11.33,0,0,1,5.79,10.39V41.33l3.33.15v-25h17.09v2.33a10.93,10.93,0,0,1,2.93-1.58v9.85a3,3,0,0,0-2.22.7,3.15,3.15,0,0,0-.71,2.34V42.38l2.93.19v4.32c-14-.79-28.52-1.41-43.41-1.8V40.61l3,.08V30.24a3.75,3.75,0,0,0-.71-2.55,2.92,2.92,0,0,0-2.26-.92Zm84.47-3-17.39-.36V.14L359.18,0Zm-41,4.21c.39-.14.81-.28,1.24-.39a22.21,22.21,0,0,1,6.43-.86,13,13,0,0,1,8.82,3,8.54,8.54,0,0,1,3.54,7V44l3.6.29V16.46h8.55V49.12q-15.58-1.29-32.18-2.25V42.55l2.93.18V30.24c0-2.12-.92-3.18-2.9-3.18h0Zm40.73-4.57V.14m-8.55,16.32h8.55V45.81c5.62.56,11.12,1.16,16.45,1.79,6.61-3.28,10-5.65,10-7.05V30.24a3.74,3.74,0,0,0-.71-2.55,3,3,0,0,0-4.24-.07.46.46,0,0,0-.07.07,3.48,3.48,0,0,0-.84,2.55V44H362.91V30.1c0-5.16,2.12-8.9,6.29-11.31C372.59,17,377.26,16,383.33,16S393.93,17,397,19.07c3.61,2.33,5.44,6.3,5.44,11.66V51.29l.85.14c1.12.17,2.23.36,3.33.54V.14h17.08v55c17.68,3.56,32,7.61,42.11,12.07-22.81-6.43-54-11.8-90.85-15.75-7.93-.84-16.14-1.61-24.58-2.31Z" transform="translate(-0.05)"/></svg>